<svg width="512" height="512" viewBox="0 0 512 512" fill="none" xmlns="http://www.w3.org/2000/svg">
<path d="M63.9999 213.333H62.7199C59.9167 213.17 57.1732 212.455 54.6469 211.229C52.1205 210.004 49.861 208.291 47.998 206.19C46.1349 204.089 44.7049 201.641 43.79 198.987C42.8752 196.332 42.4934 193.523 42.6666 190.72C44.3733 160.427 50.5599 106.667 72.1066 89.8133C147.84 30.7199 364.16 30.9333 439.893 89.8133C461.227 106.88 467.627 160.427 469.333 190.72C469.501 193.521 469.116 196.329 468.199 198.981C467.282 201.634 465.852 204.08 463.99 206.18C462.128 208.28 459.87 209.992 457.346 211.22C454.822 212.447 452.081 213.165 449.28 213.333C446.478 213.501 443.671 213.116 441.019 212.199C438.366 211.282 435.92 209.852 433.82 207.99C431.72 206.128 430.008 203.87 428.78 201.346C427.553 198.822 426.835 196.081 426.667 193.28C426.415 169.16 421.714 145.294 412.8 122.88C354.56 77.4399 156.8 77.4399 98.5599 122.88C90.1005 145.402 85.6249 169.224 85.3333 193.28C85.0067 198.713 82.6157 203.816 78.6498 207.544C74.6839 211.272 69.443 213.343 63.9999 213.333Z" fill="#60A4F9"/>
<path d="M256 469.333C231.467 469.333 149.333 466.56 113.493 429.653C85.3333 399.36 83.84 343.893 85.3333 313.387C90.24 256 112.64 178.773 152.107 147.627C191.573 116.48 318.72 114.56 360.107 147.627C401.493 180.693 421.973 257.067 425.813 315.52C427.733 345.387 426.88 399.573 398.507 429.44C362.667 466.56 280.533 469.333 256 469.333ZM256 165.12C229.069 163.222 202.134 168.757 178.133 181.12C154.667 200.107 132.693 259.413 128 316.587C125.227 355.2 131.413 387.2 143.787 400.213C156.16 413.227 205.013 426.667 256 426.667C306.987 426.667 352.853 415.787 367.573 400.213C379.947 387.2 385.92 357.547 383.36 318.507C379.52 260.907 357.547 200.533 333.44 181.12C309.625 168.665 282.801 163.122 256 165.12Z" fill="#60A4F9"/>
<path fill-rule="evenodd" clip-rule="evenodd" d="M316.131 299.803C319.659 302.946 319.977 308.36 316.841 311.896L262.531 373.125C260.909 374.954 258.584 376 256.143 376C253.702 376 251.377 374.954 249.755 373.125L195.445 311.896C192.309 308.36 192.627 302.946 196.155 299.803C199.683 296.661 205.085 296.979 208.221 300.515L247.596 344.906L247.596 224.566C247.596 219.835 251.423 216 256.143 216C260.863 216 264.69 219.835 264.69 224.566L264.69 344.906L304.065 300.515C307.201 296.979 312.603 296.661 316.131 299.803Z" fill="#60A4F9" stroke="#60A4F9" stroke-width="22.8571" stroke-linecap="round" stroke-linejoin="round"/>
</svg>
